<svg width="18" height="19" viewBox="0 0 18 19" fill="none" xmlns="http://www.w3.org/2000/svg">
<path d="M9 11.2285C10.6545 11.2285 12 9.88302 12 8.22852C12 6.57402 10.6545 5.22852 9 5.22852C7.3455 5.22852 6 6.57402 6 8.22852C6 9.88302 7.3455 11.2285 9 11.2285ZM9 6.72852C9.82725 6.72852 10.5 7.40127 10.5 8.22852C10.5 9.05577 9.82725 9.72851 9 9.72851C8.17275 9.72851 7.5 9.05577 7.5 8.22852C7.5 7.40127 8.17275 6.72852 9 6.72852Z" fill="white"/>
<path d="M8.565 17.089C8.69194 17.1797 8.84402 17.2284 9 17.2284C9.15598 17.2284 9.30807 17.1797 9.435 17.089C9.663 16.9278 15.0218 13.0585 15 8.22852C15 4.92027 12.3083 2.22852 9 2.22852C5.69175 2.22852 3 4.92027 3 8.22477C2.97825 13.0585 8.337 16.9278 8.565 17.089ZM9 3.72852C11.4818 3.72852 13.5 5.74677 13.5 8.23227C13.5158 11.5608 10.209 14.5495 9 15.5298C7.79175 14.5488 4.48425 11.5593 4.5 8.22852C4.5 5.74677 6.51825 3.72852 9 3.72852Z" fill="white"/>
</svg>
