<svg width="28" height="29" viewBox="0 0 28 29" fill="none" xmlns="http://www.w3.org/2000/svg">
<path d="M4.375 4.22852C4.14294 4.22852 3.92038 4.3207 3.75628 4.4848C3.59219 4.64889 3.5 4.87145 3.5 5.10352C3.5 5.33558 3.59219 5.55814 3.75628 5.72223C3.92038 5.88633 4.14294 5.97852 4.375 5.97852H4.8055C4.9955 5.97884 5.18023 6.04101 5.33177 6.15561C5.48332 6.27022 5.59344 6.43104 5.6455 6.61377L8.421 16.3263C8.57798 16.8744 8.90915 17.3565 9.36443 17.6997C9.81971 18.0429 10.3744 18.2285 10.9445 18.2285H18.9403C19.465 18.2286 19.9777 18.0714 20.4122 17.7773C20.8468 17.4831 21.1832 17.0655 21.378 16.5783L23.9575 10.1278C24.0635 9.86234 24.103 9.57497 24.0723 9.29079C24.0416 9.00661 23.9418 8.73427 23.7816 8.49757C23.6214 8.26087 23.4056 8.06701 23.1532 7.93295C22.9008 7.79889 22.6193 7.7287 22.3335 7.72852H7.784L7.32725 6.13252C7.17067 5.58437 6.8399 5.10209 6.38495 4.75858C5.92999 4.41508 5.37557 4.22901 4.8055 4.22852H4.375ZM10.1045 15.8433L8.2845 9.47852H22.3318L19.7523 15.929C19.6872 16.0912 19.5752 16.2302 19.4304 16.3282C19.2857 16.4261 19.115 16.4785 18.9403 16.4785H10.9445C10.7545 16.4782 10.5698 16.416 10.4182 16.3014C10.2667 16.1868 10.1566 16.026 10.1045 15.8433ZM11.375 25.2285C11.7197 25.2285 12.0611 25.1606 12.3795 25.0287C12.698 24.8968 12.9874 24.7034 13.2312 24.4597C13.4749 24.2159 13.6683 23.9265 13.8002 23.6081C13.9321 23.2896 14 22.9482 14 22.6035C14 22.2588 13.9321 21.9175 13.8002 21.599C13.6683 21.2805 13.4749 20.9911 13.2312 20.7474C12.9874 20.5036 12.698 20.3103 12.3795 20.1783C12.0611 20.0464 11.7197 19.9785 11.375 19.9785C10.6788 19.9785 10.0111 20.2551 9.51884 20.7474C9.02656 21.2396 8.75 21.9073 8.75 22.6035C8.75 23.2997 9.02656 23.9674 9.51884 24.4597C10.0111 24.952 10.6788 25.2285 11.375 25.2285ZM11.375 23.4785C11.1429 23.4785 10.9204 23.3863 10.7563 23.2222C10.5922 23.0581 10.5 22.8356 10.5 22.6035C10.5 22.3715 10.5922 22.1489 10.7563 21.9848C10.9204 21.8207 11.1429 21.7285 11.375 21.7285C11.6071 21.7285 11.8296 21.8207 11.9937 21.9848C12.1578 22.1489 12.25 22.3715 12.25 22.6035C12.25 22.8356 12.1578 23.0581 11.9937 23.2222C11.8296 23.3863 11.6071 23.4785 11.375 23.4785ZM18.375 25.2285C18.7197 25.2285 19.0611 25.1606 19.3795 25.0287C19.698 24.8968 19.9874 24.7034 20.2312 24.4597C20.4749 24.2159 20.6683 23.9265 20.8002 23.6081C20.9321 23.2896 21 22.9482 21 22.6035C21 22.2588 20.9321 21.9175 20.8002 21.599C20.6683 21.2805 20.4749 20.9911 20.2312 20.7474C19.9874 20.5036 19.698 20.3103 19.3795 20.1783C19.0611 20.0464 18.7197 19.9785 18.375 19.9785C17.6788 19.9785 17.0111 20.2551 16.5188 20.7474C16.0266 21.2396 15.75 21.9073 15.75 22.6035C15.75 23.2997 16.0266 23.9674 16.5188 24.4597C17.0111 24.952 17.6788 25.2285 18.375 25.2285ZM18.375 23.4785C18.1429 23.4785 17.9204 23.3863 17.7563 23.2222C17.5922 23.0581 17.5 22.8356 17.5 22.6035C17.5 22.3715 17.5922 22.1489 17.7563 21.9848C17.9204 21.8207 18.1429 21.7285 18.375 21.7285C18.6071 21.7285 18.8296 21.8207 18.9937 21.9848C19.1578 22.1489 19.25 22.3715 19.25 22.6035C19.25 22.8356 19.1578 23.0581 18.9937 23.2222C18.8296 23.3863 18.6071 23.4785 18.375 23.4785Z" fill="#112D31" stroke="#112D31" stroke-width="0.3"/>
</svg>
