<svg width="23" height="23" viewBox="0 0 23 23" fill="none" xmlns="http://www.w3.org/2000/svg">
<path d="M21.3737 20.072L21.0201 20.4256L19.6966 21.7491L19.343 22.1027L18.9894 21.749L15.2931 18.0518C13.7799 19.1439 11.9574 19.7339 10.0836 19.7312M21.3737 20.072L19.0022 10.8126C19.0018 5.89017 15.0069 1.89551 10.0843 1.89551C5.16155 1.89551 1.1665 5.89056 1.1665 10.8133C1.1665 15.7359 5.16117 19.7308 10.0836 19.7312M21.3737 20.072L21.02 19.7184M21.3737 20.072L21.02 19.7184M10.0836 19.7312L10.0843 19.2312V19.7312C10.0841 19.7312 10.0839 19.7312 10.0836 19.7312ZM21.02 19.7184L17.3228 16.0221M21.02 19.7184L17.3228 16.0221M17.3228 16.0221C18.4148 14.5091 19.0047 12.6868 19.0022 10.8133L17.3228 16.0221ZM16.1316 10.8133L16.1316 10.8141C16.134 12.3852 15.5228 13.8951 14.4282 15.022L14.293 15.1572C13.1661 16.2518 11.6562 16.863 10.0851 16.8606H10.0843C6.74362 16.8606 4.03714 14.1541 4.03714 10.8133C4.03714 7.47263 6.74362 4.76614 10.0843 4.76614C13.4251 4.76614 16.1316 7.47262 16.1316 10.8133Z" fill="#112D31" stroke="#112D31"/>
</svg>
