<svg width="20" height="21" viewBox="0 0 20 21" fill="none" xmlns="http://www.w3.org/2000/svg">
<path d="M15.0259 14.576L18.595 18.1443L17.4159 19.3235L13.8475 15.7543C12.5198 16.8187 10.8684 17.3976 9.16669 17.3952C5.02669 17.3952 1.66669 14.0352 1.66669 9.89517C1.66669 5.75517 5.02669 2.39517 9.16669 2.39517C13.3067 2.39517 16.6667 5.75517 16.6667 9.89517C16.6691 11.5968 16.0902 13.2483 15.0259 14.576ZM13.3542 13.9577C14.4118 12.8701 15.0024 11.4122 15 9.89517C15 6.67267 12.3892 4.06184 9.16669 4.06184C5.94419 4.06184 3.33335 6.67267 3.33335 9.89517C3.33335 13.1177 5.94419 15.7285 9.16669 15.7285C10.6837 15.7309 12.1416 15.1403 13.2292 14.0827L13.3542 13.9577Z" fill="#112D31"/>
</svg>
